<svg width="100" height="124" viewBox="0 0 100 124" fill="none" xmlns="http://www.w3.org/2000/svg">
<circle cx="50" cy="62" r="50" fill="#CED1BC"/>
<path d="M32.32 31.472C34.624 30.96 37.152 30.576 39.904 30.32C42.656 30 45.408 29.84 48.16 29.84C51.104 29.84 53.984 30.128 56.8 30.704C59.68 31.216 62.24 32.272 64.48 33.872C66.72 35.472 68.544 37.744 69.952 40.688C71.36 43.568 72.064 47.344 72.064 52.016C72.064 56.24 71.456 59.824 70.24 62.768C69.088 65.712 67.52 68.112 65.536 69.968C63.552 71.824 61.248 73.168 58.624 74C56.064 74.832 53.408 75.248 50.656 75.248C50.4 75.248 49.984 75.248 49.408 75.248C48.832 75.248 48.224 75.248 47.584 75.248C46.944 75.184 46.304 75.12 45.664 75.056C45.088 74.992 44.672 74.928 44.416 74.864V98H32.32V31.472ZM44.416 64.016C44.8 64.144 45.504 64.272 46.528 64.4C47.616 64.464 48.352 64.496 48.736 64.496C50.144 64.496 51.488 64.304 52.768 63.92C54.048 63.536 55.168 62.896 56.128 62C57.152 61.04 57.952 59.76 58.528 58.16C59.104 56.496 59.392 54.416 59.392 51.92C59.392 49.808 59.104 48.016 58.528 46.544C58.016 45.072 57.28 43.92 56.32 43.088C55.424 42.192 54.368 41.552 53.152 41.168C51.936 40.784 50.656 40.592 49.312 40.592C47.328 40.592 45.696 40.752 44.416 41.072V64.016Z" fill="#42211A"/>
</svg>
