<svg width="19" height="21" viewBox="0 0 19 21" fill="none" xmlns="http://www.w3.org/2000/svg">
<rect x="0.25" y="3.25" width="18.5" height="16.5" rx="3.75" fill="white" stroke="black" stroke-width="0.5"/>
<path d="M4.6 17V9.512H5.688V17H4.6ZM5.144 8.056C4.89867 8.056 4.69067 7.97067 4.52 7.8C4.36 7.62933 4.28 7.42133 4.28 7.176C4.28 6.94133 4.36 6.744 4.52 6.584C4.69067 6.41333 4.89867 6.328 5.144 6.328C5.37867 6.328 5.58133 6.41333 5.752 6.584C5.92267 6.744 6.008 6.94667 6.008 7.192C6.008 7.42667 5.92267 7.62933 5.752 7.8C5.58133 7.97067 5.37867 8.056 5.144 8.056ZM11.8573 9.256C12.3799 9.256 12.8599 9.36267 13.2973 9.576C13.7453 9.78933 14.0973 10.104 14.3533 10.52C14.6199 10.936 14.7533 11.4267 14.7533 11.992V17H13.6653V12.472C13.6653 10.9893 13.0039 10.248 11.6813 10.248C10.9133 10.248 10.3373 10.52 9.95325 11.064C9.56925 11.608 9.37725 12.3387 9.37725 13.256V17H8.28925V9.512H9.37725V10.76C9.63325 10.28 9.96925 9.912 10.3853 9.656C10.8119 9.38933 11.3026 9.256 11.8573 9.256Z" fill="black"/>
</svg>
