<svg width="294" height="70" viewBox="0 0 294 70" fill="none" xmlns="http://www.w3.org/2000/svg">
<path d="M-0.000312328 1.632C2.30369 1.12 4.83169 0.736 7.58369 0.48C10.3357 0.16 13.0877 0 15.8397 0C18.7837 0 21.6637 0.288 24.4797 0.864C27.3597 1.376 29.9197 2.432 32.1597 4.032C34.3997 5.632 36.2237 7.904 37.6317 10.848C39.0397 13.728 39.7437 17.504 39.7437 22.176C39.7437 26.4 39.1357 29.984 37.9197 32.928C36.7677 35.872 35.1997 38.272 33.2157 40.128C31.2317 41.984 28.9277 43.328 26.3037 44.16C23.7437 44.992 21.0877 45.408 18.3357 45.408C18.0797 45.408 17.6637 45.408 17.0877 45.408C16.5117 45.408 15.9037 45.408 15.2637 45.408C14.6237 45.344 13.9837 45.28 13.3437 45.216C12.7677 45.152 12.3517 45.088 12.0957 45.024V68.16H-0.000312328V1.632ZM12.0957 34.176C12.4797 34.304 13.1837 34.432 14.2077 34.56C15.2957 34.624 16.0317 34.656 16.4157 34.656C17.8237 34.656 19.1677 34.464 20.4477 34.08C21.7277 33.696 22.8477 33.056 23.8077 32.16C24.8317 31.2 25.6317 29.92 26.2077 28.32C26.7837 26.656 27.0717 24.576 27.0717 22.08C27.0717 19.968 26.7837 18.176 26.2077 16.704C25.6957 15.232 24.9597 14.08 23.9997 13.248C23.1037 12.352 22.0477 11.712 20.8317 11.328C19.6157 10.944 18.3357 10.752 16.9917 10.752C15.0077 10.752 13.3757 10.912 12.0957 11.232V34.176ZM40.9234 44.16C40.9234 35.648 42.5874 29.312 45.9154 25.152C49.2434 20.992 53.8834 18.912 59.8354 18.912C66.2354 18.912 71.0034 21.024 74.1394 25.248C77.2754 29.472 78.8434 35.776 78.8434 44.16C78.8434 52.736 77.1794 59.104 73.8514 63.264C70.5234 67.36 65.8514 69.408 59.8354 69.408C47.2274 69.408 40.9234 60.992 40.9234 44.16ZM52.7314 44.16C52.7314 48.96 53.2754 52.672 54.3634 55.296C55.4514 57.92 57.2754 59.232 59.8354 59.232C62.2674 59.232 64.0594 58.112 65.2114 55.872C66.4274 53.568 67.0354 49.664 67.0354 44.16C67.0354 39.232 66.4914 35.488 65.4034 32.928C64.3154 30.368 62.4594 29.088 59.8354 29.088C57.5954 29.088 55.8354 30.24 54.5554 32.544C53.3394 34.784 52.7314 38.656 52.7314 44.16ZM108.057 31.488C106.521 30.912 105.113 30.624 103.833 30.624C102.105 30.624 100.601 31.104 99.3214 32.064C98.1054 33.024 97.2734 34.368 96.8254 36.096V68.16H85.4014V20.16H94.1374L95.4814 25.92H95.8654C96.6974 23.808 97.8814 22.176 99.4174 21.024C101.017 19.808 102.841 19.2 104.889 19.2C106.425 19.2 107.929 19.52 109.401 20.16L108.057 31.488ZM112.22 20.16H117.5V11.136L128.924 7.584V20.16H138.236V30.336H128.924V51.264C128.924 54.016 129.18 55.968 129.692 57.12C130.268 58.272 131.26 58.848 132.668 58.848C133.628 58.848 134.492 58.752 135.26 58.56C136.028 58.368 136.86 58.08 137.756 57.696L139.196 66.816C137.788 67.52 136.156 68.096 134.3 68.544C132.444 69.056 130.492 69.312 128.444 69.312C124.796 69.312 122.044 68.256 120.188 66.144C118.396 64.032 117.5 60.48 117.5 55.488V30.336H112.22V20.16ZM140.541 20.16H145.725V17.472C145.725 11.392 146.845 7.008 149.085 4.32C151.389 1.568 154.653 0.192003 158.877 0.192003C163.101 0.192003 166.621 0.768002 169.437 1.92L167.325 11.616C166.173 11.168 165.149 10.912 164.253 10.848C163.357 10.72 162.429 10.656 161.469 10.656C159.613 10.656 158.429 11.392 157.917 12.864C157.405 14.272 157.149 16.704 157.149 20.16H165.309V30.336H157.149V68.16H145.725V30.336H140.541V20.16ZM167.767 44.16C167.767 35.648 169.431 29.312 172.759 25.152C176.087 20.992 180.727 18.912 186.679 18.912C193.079 18.912 197.847 21.024 200.983 25.248C204.119 29.472 205.687 35.776 205.687 44.16C205.687 52.736 204.023 59.104 200.695 63.264C197.367 67.36 192.695 69.408 186.679 69.408C174.071 69.408 167.767 60.992 167.767 44.16ZM179.575 44.16C179.575 48.96 180.119 52.672 181.207 55.296C182.295 57.92 184.119 59.232 186.679 59.232C189.111 59.232 190.903 58.112 192.055 55.872C193.271 53.568 193.879 49.664 193.879 44.16C193.879 39.232 193.335 35.488 192.247 32.928C191.159 30.368 189.303 29.088 186.679 29.088C184.439 29.088 182.679 30.24 181.399 32.544C180.183 34.784 179.575 38.656 179.575 44.16ZM223.861 52.608C223.861 54.848 224.085 56.448 224.533 57.408C224.981 58.368 225.717 58.848 226.741 58.848C227.317 58.848 227.893 58.784 228.469 58.656C229.109 58.528 229.813 58.304 230.581 57.984L231.637 67.2C230.869 67.712 229.557 68.192 227.701 68.64C225.845 69.088 223.957 69.312 222.037 69.312C218.837 69.312 216.437 68.512 214.837 66.912C213.237 65.312 212.437 62.592 212.437 58.752V0.959999H223.861V52.608ZM236.549 20.16H247.973V68.16H236.549V20.16ZM235.205 6.624C235.205 4.704 235.813 3.136 237.029 1.92C238.245 0.639999 239.973 0 242.213 0C244.453 0 246.245 0.608 247.589 1.824C248.933 3.04 249.605 4.64 249.605 6.624C249.605 8.608 248.933 10.176 247.589 11.328C246.245 12.48 244.453 13.056 242.213 13.056C239.973 13.056 238.245 12.48 237.029 11.328C235.813 10.112 235.205 8.544 235.205 6.624ZM255.423 44.16C255.423 35.648 257.087 29.312 260.415 25.152C263.743 20.992 268.383 18.912 274.335 18.912C280.735 18.912 285.503 21.024 288.639 25.248C291.775 29.472 293.343 35.776 293.343 44.16C293.343 52.736 291.679 59.104 288.351 63.264C285.023 67.36 280.351 69.408 274.335 69.408C261.727 69.408 255.423 60.992 255.423 44.16ZM267.231 44.16C267.231 48.96 267.775 52.672 268.863 55.296C269.951 57.92 271.775 59.232 274.335 59.232C276.767 59.232 278.559 58.112 279.711 55.872C280.927 53.568 281.535 49.664 281.535 44.16C281.535 39.232 280.991 35.488 279.903 32.928C278.815 30.368 276.959 29.088 274.335 29.088C272.095 29.088 270.335 30.24 269.055 32.544C267.839 34.784 267.231 38.656 267.231 44.16Z" fill="#42211A"/>
</svg>
