<svg width="98" height="24" viewBox="0 0 98 24" fill="none" xmlns="http://www.w3.org/2000/svg">
<path d="M0.000546932 0.54397C0.768547 0.373303 1.61121 0.245303 2.52855 0.159969C3.44588 0.0533028 4.36321 -3.05176e-05 5.28055 -3.05176e-05C6.26188 -3.05176e-05 7.22188 0.0959695 8.16055 0.28797C9.12055 0.458637 9.97388 0.810637 10.7205 1.34397C11.4672 1.8773 12.0752 2.63464 12.5445 3.61597C13.0139 4.57597 13.2485 5.83464 13.2485 7.39197C13.2485 8.79997 13.0459 9.99464 12.6405 10.976C12.2565 11.9573 11.7339 12.7573 11.0725 13.376C10.4112 13.9946 9.64321 14.4426 8.76855 14.72C7.91521 14.9973 7.02988 15.136 6.11255 15.136C6.02721 15.136 5.88855 15.136 5.69655 15.136C5.50455 15.136 5.30188 15.136 5.08855 15.136C4.87521 15.1146 4.66188 15.0933 4.44855 15.072C4.25655 15.0506 4.11788 15.0293 4.03255 15.008V22.72H0.000546932V0.54397ZM4.03255 11.392C4.16055 11.4346 4.39521 11.4773 4.73655 11.52C5.09921 11.5413 5.34455 11.552 5.47255 11.552C5.94188 11.552 6.38988 11.488 6.81655 11.36C7.24321 11.232 7.61655 11.0186 7.93655 10.72C8.27788 10.4 8.54455 9.9733 8.73655 9.43997C8.92855 8.8853 9.02455 8.19197 9.02455 7.35997C9.02455 6.65597 8.92855 6.05864 8.73655 5.56797C8.56588 5.0773 8.32055 4.6933 8.00055 4.41597C7.70188 4.1173 7.34988 3.90397 6.94455 3.77597C6.53921 3.64797 6.11255 3.58397 5.66455 3.58397C5.00321 3.58397 4.45921 3.6373 4.03255 3.74397V11.392ZM13.6418 14.72C13.6418 11.8826 14.1965 9.77064 15.3058 8.38397C16.4151 6.9973 17.9618 6.30397 19.9458 6.30397C22.0791 6.30397 23.6685 7.00797 24.7138 8.41597C25.7591 9.82397 26.2818 11.9253 26.2818 14.72C26.2818 17.5786 25.7271 19.7013 24.6178 21.088C23.5085 22.4533 21.9511 23.136 19.9458 23.136C15.7431 23.136 13.6418 20.3306 13.6418 14.72ZM17.5778 14.72C17.5778 16.32 17.7591 17.5573 18.1218 18.432C18.4845 19.3066 19.0925 19.744 19.9458 19.744C20.7565 19.744 21.3538 19.3706 21.7378 18.624C22.1431 17.856 22.3458 16.5546 22.3458 14.72C22.3458 13.0773 22.1645 11.8293 21.8018 10.976C21.4391 10.1226 20.8205 9.69597 19.9458 9.69597C19.1991 9.69597 18.6125 10.08 18.1858 10.848C17.7805 11.5946 17.5778 12.8853 17.5778 14.72ZM36.0198 10.496C35.5078 10.304 35.0385 10.208 34.6118 10.208C34.0358 10.208 33.5345 10.368 33.1078 10.688C32.7025 11.008 32.4251 11.456 32.2758 12.032V22.72H28.4678V6.71997H31.3798L31.8278 8.63997H31.9558C32.2331 7.93597 32.6278 7.39197 33.1398 7.00797C33.6731 6.60264 34.2811 6.39997 34.9638 6.39997C35.4758 6.39997 35.9771 6.50664 36.4678 6.71997L36.0198 10.496ZM37.4073 6.71997H39.1673V3.71197L42.9753 2.52797V6.71997H46.0793V10.112H42.9753V17.088C42.9753 18.0053 43.0606 18.656 43.2313 19.04C43.4233 19.424 43.754 19.616 44.2233 19.616C44.5433 19.616 44.8313 19.584 45.0873 19.52C45.3433 19.456 45.6206 19.36 45.9193 19.232L46.3993 22.272C45.93 22.5066 45.386 22.6986 44.7673 22.848C44.1486 23.0186 43.498 23.104 42.8153 23.104C41.5993 23.104 40.682 22.752 40.0633 22.048C39.466 21.344 39.1673 20.16 39.1673 18.496V10.112H37.4073V6.71997ZM46.8478 6.71997H48.5758V5.82397C48.5758 3.7973 48.9491 2.33597 49.6958 1.43997C50.4638 0.522637 51.5518 0.0639706 52.9598 0.0639706C54.3678 0.0639706 55.5411 0.25597 56.4798 0.639969L55.7758 3.87197C55.3918 3.72264 55.0505 3.6373 54.7518 3.61597C54.4531 3.5733 54.1438 3.55197 53.8238 3.55197C53.2051 3.55197 52.8105 3.7973 52.6398 4.28797C52.4691 4.7573 52.3838 5.56797 52.3838 6.71997H55.1038V10.112H52.3838V22.72H48.5758V10.112H46.8478V6.71997ZM55.923 14.72C55.923 11.8826 56.4777 9.77064 57.587 8.38397C58.6964 6.9973 60.243 6.30397 62.227 6.30397C64.3604 6.30397 65.9497 7.00797 66.995 8.41597C68.0404 9.82397 68.563 11.9253 68.563 14.72C68.563 17.5786 68.0084 19.7013 66.899 21.088C65.7897 22.4533 64.2324 23.136 62.227 23.136C58.0244 23.136 55.923 20.3306 55.923 14.72ZM59.859 14.72C59.859 16.32 60.0404 17.5573 60.403 18.432C60.7657 19.3066 61.3737 19.744 62.227 19.744C63.0377 19.744 63.635 19.3706 64.019 18.624C64.4244 17.856 64.627 16.5546 64.627 14.72C64.627 13.0773 64.4457 11.8293 64.083 10.976C63.7204 10.1226 63.1017 9.69597 62.227 9.69597C61.4804 9.69597 60.8937 10.08 60.467 10.848C60.0617 11.5946 59.859 12.8853 59.859 14.72ZM74.621 17.536C74.621 18.2826 74.6957 18.816 74.845 19.136C74.9944 19.456 75.2397 19.616 75.581 19.616C75.773 19.616 75.965 19.5946 76.157 19.552C76.3704 19.5093 76.605 19.4346 76.861 19.328L77.213 22.4C76.957 22.5706 76.5197 22.7306 75.901 22.88C75.2824 23.0293 74.653 23.104 74.013 23.104C72.9464 23.104 72.1464 22.8373 71.613 22.304C71.0797 21.7706 70.813 20.864 70.813 19.584V0.319969H74.621V17.536ZM78.8503 6.71997H82.6583V22.72H78.8503V6.71997ZM78.4023 2.20797C78.4023 1.56797 78.605 1.0453 79.0103 0.639969C79.4156 0.213303 79.9916 -3.05176e-05 80.7383 -3.05176e-05C81.485 -3.05176e-05 82.0823 0.202636 82.5303 0.607969C82.9783 1.0133 83.2023 1.54664 83.2023 2.20797C83.2023 2.8693 82.9783 3.39197 82.5303 3.77597C82.0823 4.15997 81.485 4.35197 80.7383 4.35197C79.9916 4.35197 79.4156 4.15997 79.0103 3.77597C78.605 3.37064 78.4023 2.84797 78.4023 2.20797ZM85.1418 14.72C85.1418 11.8826 85.6965 9.77064 86.8058 8.38397C87.9151 6.9973 89.4618 6.30397 91.4458 6.30397C93.5791 6.30397 95.1685 7.00797 96.2138 8.41597C97.2591 9.82397 97.7818 11.9253 97.7818 14.72C97.7818 17.5786 97.2271 19.7013 96.1178 21.088C95.0085 22.4533 93.4511 23.136 91.4458 23.136C87.2431 23.136 85.1418 20.3306 85.1418 14.72ZM89.0778 14.72C89.0778 16.32 89.2591 17.5573 89.6218 18.432C89.9845 19.3066 90.5925 19.744 91.4458 19.744C92.2565 19.744 92.8538 19.3706 93.2378 18.624C93.6431 17.856 93.8458 16.5546 93.8458 14.72C93.8458 13.0773 93.6645 11.8293 93.3018 10.976C92.9391 10.1226 92.3205 9.69597 91.4458 9.69597C90.6991 9.69597 90.1125 10.08 89.6858 10.848C89.2805 11.5946 89.0778 12.8853 89.0778 14.72Z" fill="#42211A"/>
</svg>
